# xmcd
#
# Track frame offsets: 
#        150
#        13976
#        30278
#        52309
#        71954
#        89456
#        104548
#        125177
#        145725
#        161339
#
# Disc length: 2461 seconds
#
# Revision: 0
# Processed by: cddbd v1.5.2PL0 Copyright (c) Steve Scherf et al.
# Submitted via: ExactAudioCopy v1.2
#
DISCID=92099b0a
DTITLE=Sugaray Rayford - Somebody Save Me
DYEAR=2019
DGENRE=Blues
TTITLE0=The Revelator
TTITLE1=Time to Get Movin'
TTITLE2=You and I
TTITLE3=My Cards Are on the Table
TTITLE4=I'd Kill for You, Honey
TTITLE5=Angels and Devils
TTITLE6=Sometimes You Get the Bear (And Sometimes the Bear Gets You)
TTITLE7=Somebody Save Me
TTITLE8=Is It Just Me
TTITLE9=Dark Night of the Soul
EXTD=
EXTT0=
EXTT1=
EXTT2=
EXTT3=
EXTT4=
EXTT5=
EXTT6=
EXTT7=
EXTT8=
EXTT9=
PLAYORDER=
